<?xml version="1.0" standalone="no"?>
<!DOCTYPE svg PUBLIC "-//W3C//DTD SVG 20010904//EN"
 "http://www.w3.org/TR/2001/REC-SVG-20010904/DTD/svg10.dtd">
<svg version="1.0" xmlns="http://www.w3.org/2000/svg"
 width="96.000000pt" height="96.000000pt" viewBox="0 0 96.000000 96.000000"
 preserveAspectRatio="xMidYMid meet">
<metadata>
Created by potrace 1.14, written by Peter Selinger 2001-2017
</metadata>
<g transform="translate(0.000000,96.000000) scale(0.100000,-0.100000)"
fill="#000000" stroke="none">
<path d="M60 480 l0 -270 420 0 420 0 0 270 0 270 -420 0 -420 0 0 -270z m780
0 l0 -210 -360 0 -360 0 0 210 0 210 360 0 360 0 0 -210z"/>
<path d="M180 480 l0 -150 61 0 c54 0 64 3 90 29 28 28 29 33 29 121 0 88 -1
93 -29 121 -26 26 -36 29 -90 29 l-61 0 0 -150z m115 0 l0 -85 -27 -3 -28 -3
0 91 0 91 28 -3 27 -3 0 -85z"/>
<path d="M440 610 c-18 -18 -20 -33 -20 -130 0 -129 11 -150 80 -150 38 0 40
2 40 30 0 27 -3 30 -30 30 -27 0 -30 3 -30 30 0 27 3 30 30 30 27 0 30 3 30
30 0 27 -3 30 -30 30 -27 0 -30 3 -30 30 0 27 3 30 30 30 27 0 30 3 30 30 0
28 -2 30 -40 30 -27 0 -47 -7 -60 -20z"/>
<path d="M590 627 c0 -1 5 -18 10 -37 6 -19 13 -48 16 -65 17 -96 41 -179 55
-188 40 -25 53 2 94 188 10 44 20 86 22 93 4 8 -5 12 -25 12 -34 0 -39 -4 -46
-46 -12 -61 -15 -74 -24 -90 -7 -13 -11 -6 -17 27 -14 76 -15 84 -20 97 -3 9
-65 19 -65 9z"/>
</g>
</svg>
